<mxfile host="app.diagrams.net" modified="2022-11-11T19:19:28.992Z" agent="5.0 (Macintosh; Intel Mac OS X 10_14_6) AppleWebKit/537.36 (KHTML, like Gecko) Chrome/106.0.0.0 Safari/537.36" etag="AKCwLtY0ddXLOB64HOLo" version="20.4.1" type="github">
  <diagram id="ZI45wVHc0vzJrkTSu8FX" name="第 1 页">
    <mxGraphModel dx="946" dy="534" grid="1" gridSize="10" guides="1" tooltips="1" connect="1" arrows="1" fold="1" page="1" pageScale="1" pageWidth="827" pageHeight="1169" math="0" shadow="0">
      <root>
        <mxCell id="0" />
        <mxCell id="1" parent="0" />
        <mxCell id="wtEXkGc65VS5azund6cJ-30" value="" style="shape=flexArrow;endArrow=classic;html=1;rounded=0;fontSize=16;entryX=0;entryY=0.5;entryDx=0;entryDy=0;exitX=0;exitY=0.5;exitDx=0;exitDy=0;" edge="1" parent="1" source="wtEXkGc65VS5azund6cJ-20" target="wtEXkGc65VS5azund6cJ-29">
          <mxGeometry width="50" height="50" relative="1" as="geometry">
            <mxPoint x="470" y="280" as="sourcePoint" />
            <mxPoint x="470" y="310" as="targetPoint" />
            <Array as="points" />
          </mxGeometry>
        </mxCell>
        <mxCell id="wtEXkGc65VS5azund6cJ-2" value="" style="shape=table;html=1;whiteSpace=wrap;startSize=0;container=1;collapsible=0;childLayout=tableLayout;strokeWidth=1;fontSize=16;fontStyle=0;fillColor=#b0e3e6;strokeColor=#0e8088;" vertex="1" parent="1">
          <mxGeometry x="40" y="160" width="360" height="40" as="geometry" />
        </mxCell>
        <mxCell id="wtEXkGc65VS5azund6cJ-3" value="" style="shape=tableRow;horizontal=0;startSize=0;swimlaneHead=0;swimlaneBody=0;top=0;left=0;bottom=0;right=0;collapsible=0;dropTarget=0;fillColor=none;points=[[0,0.5],[1,0.5]];portConstraint=eastwest;strokeWidth=1;fontSize=16;fontStyle=0" vertex="1" parent="wtEXkGc65VS5azund6cJ-2">
          <mxGeometry width="360" height="40" as="geometry" />
        </mxCell>
        <mxCell id="wtEXkGc65VS5azund6cJ-4" value="1" style="shape=partialRectangle;html=1;whiteSpace=wrap;connectable=0;fillColor=none;top=0;left=0;bottom=0;right=0;overflow=hidden;strokeWidth=1;fontSize=16;fontStyle=0" vertex="1" parent="wtEXkGc65VS5azund6cJ-3">
          <mxGeometry width="120" height="40" as="geometry">
            <mxRectangle width="120" height="40" as="alternateBounds" />
          </mxGeometry>
        </mxCell>
        <mxCell id="wtEXkGc65VS5azund6cJ-5" value="" style="shape=partialRectangle;html=1;whiteSpace=wrap;connectable=0;fillColor=none;top=0;left=0;bottom=0;right=0;overflow=hidden;strokeWidth=1;fontSize=16;fontStyle=0" vertex="1" parent="wtEXkGc65VS5azund6cJ-3">
          <mxGeometry x="120" width="120" height="40" as="geometry">
            <mxRectangle width="120" height="40" as="alternateBounds" />
          </mxGeometry>
        </mxCell>
        <mxCell id="wtEXkGc65VS5azund6cJ-6" value="" style="shape=partialRectangle;html=1;whiteSpace=wrap;connectable=0;fillColor=none;top=0;left=0;bottom=0;right=0;overflow=hidden;strokeWidth=1;fontSize=16;fontStyle=0" vertex="1" parent="wtEXkGc65VS5azund6cJ-3">
          <mxGeometry x="240" width="120" height="40" as="geometry">
            <mxRectangle width="120" height="40" as="alternateBounds" />
          </mxGeometry>
        </mxCell>
        <mxCell id="wtEXkGc65VS5azund6cJ-17" value="donscoco" style="shape=partialRectangle;html=1;whiteSpace=wrap;connectable=0;fillColor=none;top=0;left=0;bottom=0;right=0;overflow=hidden;strokeWidth=1;fontSize=16;fontStyle=0" vertex="1" parent="1">
          <mxGeometry x="160" y="160" width="120" height="40" as="geometry">
            <mxRectangle width="120" height="40" as="alternateBounds" />
          </mxGeometry>
        </mxCell>
        <mxCell id="wtEXkGc65VS5azund6cJ-18" value="22" style="shape=partialRectangle;html=1;whiteSpace=wrap;connectable=0;fillColor=none;top=0;left=0;bottom=0;right=0;overflow=hidden;strokeWidth=1;fontSize=16;fontStyle=0" vertex="1" parent="1">
          <mxGeometry x="280" y="160" width="120" height="40" as="geometry">
            <mxRectangle width="120" height="40" as="alternateBounds" />
          </mxGeometry>
        </mxCell>
        <mxCell id="wtEXkGc65VS5azund6cJ-19" value="102" style="rounded=0;whiteSpace=wrap;html=1;strokeWidth=1;fontSize=16;fontStyle=0;fillColor=#FFFFFF;strokeColor=#36393d;" vertex="1" parent="1">
          <mxGeometry x="400" y="160" width="120" height="40" as="geometry" />
        </mxCell>
        <mxCell id="wtEXkGc65VS5azund6cJ-20" value="addr" style="rounded=0;whiteSpace=wrap;html=1;strokeWidth=1;fontSize=16;fontStyle=0;" vertex="1" parent="1">
          <mxGeometry x="520" y="160" width="120" height="40" as="geometry" />
        </mxCell>
        <mxCell id="wtEXkGc65VS5azund6cJ-21" value="id" style="text;html=1;align=center;verticalAlign=middle;resizable=0;points=[];autosize=1;strokeColor=none;fillColor=none;strokeWidth=1;fontSize=16;fontStyle=1" vertex="1" parent="1">
          <mxGeometry x="75" y="125" width="40" height="30" as="geometry" />
        </mxCell>
        <mxCell id="wtEXkGc65VS5azund6cJ-22" value="name" style="text;html=1;align=center;verticalAlign=middle;resizable=0;points=[];autosize=1;strokeColor=none;fillColor=none;strokeWidth=1;fontSize=16;fontStyle=1" vertex="1" parent="1">
          <mxGeometry x="175" y="125" width="70" height="30" as="geometry" />
        </mxCell>
        <mxCell id="wtEXkGc65VS5azund6cJ-23" value="age" style="text;html=1;align=center;verticalAlign=middle;resizable=0;points=[];autosize=1;strokeColor=none;fillColor=none;strokeWidth=1;fontSize=16;fontStyle=1" vertex="1" parent="1">
          <mxGeometry x="315" y="125" width="50" height="30" as="geometry" />
        </mxCell>
        <mxCell id="wtEXkGc65VS5azund6cJ-24" value="trx_id" style="text;html=1;align=center;verticalAlign=middle;resizable=0;points=[];autosize=1;strokeColor=none;fillColor=none;strokeWidth=1;fontSize=16;fontStyle=1" vertex="1" parent="1">
          <mxGeometry x="420" y="125" width="70" height="30" as="geometry" />
        </mxCell>
        <mxCell id="wtEXkGc65VS5azund6cJ-25" value="roll_pointer" style="text;html=1;align=center;verticalAlign=middle;resizable=0;points=[];autosize=1;strokeColor=none;fillColor=none;strokeWidth=1;fontSize=16;fontStyle=1" vertex="1" parent="1">
          <mxGeometry x="505" y="125" width="110" height="30" as="geometry" />
        </mxCell>
        <mxCell id="wtEXkGc65VS5azund6cJ-29" value="undo log" style="rounded=1;whiteSpace=wrap;html=1;strokeWidth=1;fillWeight=4;hachureGap=8;hachureAngle=45;fillColor=#b0e3e6;sketch=1;strokeColor=#0e8088;fontSize=16;fontStyle=1" vertex="1" parent="1">
          <mxGeometry x="750" y="150" width="120" height="60" as="geometry" />
        </mxCell>
        <mxCell id="wtEXkGc65VS5azund6cJ-32" value="" style="shape=curlyBracket;whiteSpace=wrap;html=1;rounded=1;strokeWidth=3;fontSize=16;fillColor=#FFFFFF;rotation=90;" vertex="1" parent="1">
          <mxGeometry x="505" y="-15" width="30" height="240" as="geometry" />
        </mxCell>
        <mxCell id="wtEXkGc65VS5azund6cJ-33" value="&lt;b&gt;&lt;font style=&quot;font-size: 18px;&quot;&gt;隐藏列&lt;/font&gt;&lt;/b&gt;" style="text;html=1;align=center;verticalAlign=middle;resizable=0;points=[];autosize=1;strokeColor=none;fillColor=none;fontSize=16;" vertex="1" parent="1">
          <mxGeometry x="480" y="50" width="80" height="40" as="geometry" />
        </mxCell>
        <mxCell id="wtEXkGc65VS5azund6cJ-34" value="" style="shape=table;html=1;whiteSpace=wrap;startSize=0;container=1;collapsible=0;childLayout=tableLayout;strokeWidth=1;fontSize=18;fillColor=#b1ddf0;strokeColor=#10739e;" vertex="1" parent="1">
          <mxGeometry x="40" y="200" width="360" height="40" as="geometry" />
        </mxCell>
        <mxCell id="wtEXkGc65VS5azund6cJ-35" value="" style="shape=tableRow;horizontal=0;startSize=0;swimlaneHead=0;swimlaneBody=0;top=0;left=0;bottom=0;right=0;collapsible=0;dropTarget=0;fillColor=none;points=[[0,0.5],[1,0.5]];portConstraint=eastwest;strokeWidth=3;fontSize=18;" vertex="1" parent="wtEXkGc65VS5azund6cJ-34">
          <mxGeometry width="360" height="40" as="geometry" />
        </mxCell>
        <mxCell id="wtEXkGc65VS5azund6cJ-36" value="2" style="shape=partialRectangle;html=1;whiteSpace=wrap;connectable=0;fillColor=none;top=0;left=0;bottom=0;right=0;overflow=hidden;strokeWidth=3;fontSize=18;" vertex="1" parent="wtEXkGc65VS5azund6cJ-35">
          <mxGeometry width="120" height="40" as="geometry">
            <mxRectangle width="120" height="40" as="alternateBounds" />
          </mxGeometry>
        </mxCell>
        <mxCell id="wtEXkGc65VS5azund6cJ-37" value="ironhead" style="shape=partialRectangle;html=1;whiteSpace=wrap;connectable=0;fillColor=none;top=0;left=0;bottom=0;right=0;overflow=hidden;strokeWidth=3;fontSize=18;" vertex="1" parent="wtEXkGc65VS5azund6cJ-35">
          <mxGeometry x="120" width="120" height="40" as="geometry">
            <mxRectangle width="120" height="40" as="alternateBounds" />
          </mxGeometry>
        </mxCell>
        <mxCell id="wtEXkGc65VS5azund6cJ-38" value="23" style="shape=partialRectangle;html=1;whiteSpace=wrap;connectable=0;fillColor=none;top=0;left=0;bottom=0;right=0;overflow=hidden;strokeWidth=3;fontSize=18;" vertex="1" parent="wtEXkGc65VS5azund6cJ-35">
          <mxGeometry x="240" width="120" height="40" as="geometry">
            <mxRectangle width="120" height="40" as="alternateBounds" />
          </mxGeometry>
        </mxCell>
        <mxCell id="wtEXkGc65VS5azund6cJ-47" value="88" style="rounded=0;whiteSpace=wrap;html=1;strokeWidth=1;fontSize=16;fontStyle=0;fillColor=#FFFFFF;strokeColor=#36393d;" vertex="1" parent="1">
          <mxGeometry x="400" y="200" width="120" height="40" as="geometry" />
        </mxCell>
        <mxCell id="wtEXkGc65VS5azund6cJ-48" value="addr" style="rounded=0;whiteSpace=wrap;html=1;strokeWidth=1;fontSize=16;fontStyle=0;" vertex="1" parent="1">
          <mxGeometry x="520" y="200" width="120" height="40" as="geometry" />
        </mxCell>
      </root>
    </mxGraphModel>
  </diagram>
</mxfile>
